<svg width="26" height="26" viewBox="0 0 26 26" fill="none" xmlns="http://www.w3.org/2000/svg">
<path d="M19.5907 26C18.2242 26 16.7851 25.6735 15.2977 25.0446C13.8465 24.4279 12.3833 23.5814 10.9563 22.5535C9.5414 21.5135 8.17488 20.3526 6.88093 19.0828C5.59907 17.7888 4.43814 16.4223 3.41023 15.0195C2.37023 13.5684 1.53581 12.1172 0.943256 10.7144C0.314419 9.21488 0 7.76372 0 6.39721C0 5.45395 0.169302 4.55907 0.495814 3.72465C0.834419 2.86605 1.3786 2.06791 2.11628 1.3786C3.04744 0.459535 4.11163 0 5.24837 0C5.72 0 6.20372 0.108837 6.61488 0.302326C7.08651 0.52 7.48558 0.846512 7.77581 1.28186L10.5814 5.23628C10.8354 5.58698 11.0288 5.92558 11.1619 6.26419C11.3191 6.62698 11.4037 6.98977 11.4037 7.34047C11.4037 7.8 11.2707 8.24744 11.0167 8.6707C10.8353 8.99721 10.5572 9.34791 10.2065 9.6986L9.38419 10.5572C9.39628 10.5935 9.40837 10.6177 9.42047 10.6419C9.56558 10.8958 9.85581 11.3312 10.4121 11.9842C11.0047 12.6614 11.5609 13.2781 12.1172 13.8465C12.8307 14.5479 13.4233 15.1042 13.9795 15.5637C14.6688 16.1442 15.1163 16.4344 15.3823 16.5674L15.3581 16.6279L16.2409 15.7572C16.6158 15.3823 16.9786 15.1042 17.3293 14.9228C17.9944 14.5116 18.8409 14.4391 19.6874 14.7898C20.0019 14.9228 20.3405 15.1042 20.7033 15.3581L24.7181 18.2121C25.1656 18.5144 25.4921 18.9014 25.6856 19.3609C25.867 19.8205 25.9516 20.2437 25.9516 20.667C25.9516 21.2474 25.8186 21.8279 25.5647 22.3721C25.3107 22.9163 24.9963 23.3879 24.5972 23.8233C23.9079 24.5851 23.1581 25.1293 22.2874 25.48C21.453 25.8186 20.546 26 19.5907 26ZM5.24837 1.81395C4.58326 1.81395 3.96651 2.10419 3.37395 2.68465C2.81767 3.20465 2.4307 3.77302 2.18884 4.38977C1.93488 5.0186 1.81395 5.68372 1.81395 6.39721C1.81395 7.52186 2.08 8.74326 2.61209 10.0009C3.15628 11.2828 3.91814 12.613 4.88558 13.9433C5.85302 15.2735 6.95349 16.5674 8.16279 17.7888C9.37209 18.986 10.6781 20.0986 12.0205 21.0781C13.3265 22.0335 14.6688 22.8074 15.9991 23.3637C18.067 24.2465 20.0019 24.4521 21.5981 23.787C22.2149 23.533 22.7591 23.146 23.2549 22.5898C23.533 22.2874 23.7507 21.9609 23.9321 21.574C24.0772 21.2716 24.1498 20.9572 24.1498 20.6428C24.1498 20.4493 24.1135 20.2558 24.0167 20.0381C23.9805 19.9656 23.9079 19.8326 23.6781 19.6753L19.6633 16.8214C19.4214 16.6521 19.2037 16.5312 18.9981 16.4465C18.7321 16.3377 18.6233 16.2288 18.2121 16.4828C17.9702 16.6037 17.7526 16.7851 17.5107 17.027L16.5916 17.934C16.12 18.3935 15.3944 18.5023 14.8381 18.2967L14.5116 18.1516C14.0158 17.8856 13.4353 17.4744 12.7944 16.9302C12.214 16.4344 11.5851 15.854 10.8233 15.1042C10.2307 14.4995 9.63814 13.8586 9.0214 13.1451C8.45302 12.48 8.04186 11.9116 7.78791 11.44L7.64279 11.0772C7.57023 10.7991 7.54605 10.6419 7.54605 10.4726C7.54605 10.0372 7.70326 9.65023 8.00558 9.34791L8.91256 8.40465C9.15442 8.16279 9.33581 7.93302 9.45674 7.72744C9.55349 7.57023 9.58977 7.43721 9.58977 7.31628C9.58977 7.21953 9.55349 7.07442 9.49302 6.9293C9.40837 6.73581 9.27535 6.51814 9.10605 6.28837L6.30047 2.32186C6.17954 2.15256 6.03442 2.03163 5.85302 1.94698C5.65954 1.86233 5.45395 1.81395 5.24837 1.81395ZM15.3581 16.64L15.1647 17.4623L15.4912 16.6158C15.4307 16.6037 15.3823 16.6158 15.3581 16.64Z" fill="black"/>
</svg>
